<?xml version="1.0" encoding="UTF-8" standalone="no"?>
<!DOCTYPE svg PUBLIC "-//W3C//DTD SVG 1.1//EN"
 "http://www.w3.org/Graphics/SVG/1.1/DTD/svg11.dtd">
<!-- Generated by graphviz version 2.47.0 (20210316.0004)
 -->
<!-- Title: dependencies Pages: 1 -->
<svg width="504pt" height="284pt"
 viewBox="0.00 0.00 504.00 284.00" xmlns="http://www.w3.org/2000/svg" xmlns:xlink="http://www.w3.org/1999/xlink">
<g id="graph0" class="graph" transform="scale(1 1) rotate(0) translate(4 280)">
<title>dependencies</title>
<polygon fill="white" stroke="transparent" points="-4,4 -4,-280 500,-280 500,4 -4,4"/>
<text text-anchor="start" x="227.01" y="-42.4" font-family="sans-serif" font-weight="bold" font-size="14.00">Legend</text>
<polygon fill="#ffffb3" stroke="transparent" points="14,-10 14,-30 34,-30 34,-10 14,-10"/>
<text text-anchor="start" x="37.63" y="-15.4" font-family="sans-serif" font-size="14.00"> &#160;Declarations</text>
<polygon fill="#8dd3c7" stroke="transparent" points="127,-10 127,-30 147,-30 147,-10 127,-10"/>
<text text-anchor="start" x="150.73" y="-15.4" font-family="sans-serif" font-size="14.00"> &#160;Module</text>
<polygon fill="#80b1d3" stroke="transparent" points="213,-10 213,-30 233,-30 233,-10 213,-10"/>
<text text-anchor="start" x="236.78" y="-15.4" font-family="sans-serif" font-size="14.00"> &#160;Bootstrap</text>
<polygon fill="#fdb462" stroke="transparent" points="310,-10 310,-30 330,-30 330,-10 310,-10"/>
<text text-anchor="start" x="333.67" y="-15.4" font-family="sans-serif" font-size="14.00"> &#160;Providers</text>
<polygon fill="#fb8072" stroke="transparent" points="406,-10 406,-30 426,-30 426,-10 406,-10"/>
<text text-anchor="start" x="429.73" y="-15.4" font-family="sans-serif" font-size="14.00"> &#160;Exports</text>
<g id="clust1" class="cluster">
<title>cluster_LikeModule</title>
<polygon fill="none" stroke="black" stroke-dasharray="1,5" points="54,-70 54,-268 442,-268 442,-70 54,-70"/>
</g>
<g id="clust3" class="cluster">
<title>cluster_LikeModule_imports</title>
<polygon fill="none" stroke="black" points="202,-78 202,-130 434,-130 434,-78 202,-78"/>
</g>
<g id="clust6" class="cluster">
<title>cluster_LikeModule_providers</title>
<polygon fill="none" stroke="black" points="62,-78 62,-130 194,-130 194,-78 62,-78"/>
</g>
<g id="clust4" class="cluster">
<title>cluster_LikeModule_exports</title>
<polygon fill="none" stroke="black" points="208,-208 208,-260 312,-260 312,-208 208,-208"/>
</g>
<!-- ArticleModule -->
<g id="node1" class="node">
<title>ArticleModule</title>
<polygon fill="#8dd3c7" stroke="black" points="426.42,-122 423.42,-126 402.42,-126 399.42,-122 327.58,-122 327.58,-86 426.42,-86 426.42,-122"/>
<text text-anchor="middle" x="377" y="-99.8" font-family="Times,serif" font-size="14.00">ArticleModule</text>
</g>
<!-- LikeModule -->
<g id="node3" class="node">
<title>LikeModule</title>
<polygon fill="#8dd3c7" stroke="black" points="302.71,-187 299.71,-191 278.71,-191 275.71,-187 217.29,-187 217.29,-151 302.71,-151 302.71,-187"/>
<text text-anchor="middle" x="260" y="-164.8" font-family="Times,serif" font-size="14.00">LikeModule</text>
</g>
<!-- ArticleModule&#45;&gt;LikeModule -->
<g id="edge1" class="edge">
<title>ArticleModule&#45;&gt;LikeModule</title>
<path fill="none" stroke="black" d="M377,-122.11C377,-141.34 377,-169 377,-169 377,-169 312.9,-169 312.9,-169"/>
<polygon fill="black" stroke="black" points="312.9,-165.5 302.9,-169 312.9,-172.5 312.9,-165.5"/>
</g>
<!-- AuthorModule -->
<g id="node2" class="node">
<title>AuthorModule</title>
<polygon fill="#8dd3c7" stroke="black" points="309.71,-122 306.71,-126 285.71,-126 282.71,-122 210.29,-122 210.29,-86 309.71,-86 309.71,-122"/>
<text text-anchor="middle" x="260" y="-99.8" font-family="Times,serif" font-size="14.00">AuthorModule</text>
</g>
<!-- AuthorModule&#45;&gt;LikeModule -->
<g id="edge2" class="edge">
<title>AuthorModule&#45;&gt;LikeModule</title>
<path fill="none" stroke="black" d="M260,-122.11C260,-122.11 260,-140.99 260,-140.99"/>
<polygon fill="black" stroke="black" points="256.5,-140.99 260,-150.99 263.5,-140.99 256.5,-140.99"/>
</g>
<!-- LikeService  -->
<g id="node4" class="node">
<title>LikeService </title>
<polygon fill="#fb8072" stroke="black" points="303.64,-252 216.36,-252 216.36,-216 303.64,-216 303.64,-252"/>
<text text-anchor="middle" x="260" y="-229.8" font-family="Times,serif" font-size="14.00">LikeService </text>
</g>
<!-- LikeModule&#45;&gt;LikeService  -->
<g id="edge3" class="edge">
<title>LikeModule&#45;&gt;LikeService </title>
<path fill="none" stroke="black" stroke-dasharray="5,2" d="M260,-187.11C260,-187.11 260,-205.99 260,-205.99"/>
<polygon fill="black" stroke="black" points="256.5,-205.99 260,-215.99 263.5,-205.99 256.5,-205.99"/>
</g>
<!-- LikeService -->
<g id="node5" class="node">
<title>LikeService</title>
<ellipse fill="#fdb462" stroke="black" cx="128" cy="-104" rx="57.88" ry="18"/>
<text text-anchor="middle" x="128" y="-99.8" font-family="Times,serif" font-size="14.00">LikeService</text>
</g>
<!-- LikeService&#45;&gt;LikeModule -->
<g id="edge4" class="edge">
<title>LikeService&#45;&gt;LikeModule</title>
<path fill="none" stroke="black" d="M128,-122.11C128,-141.34 128,-169 128,-169 128,-169 207.14,-169 207.14,-169"/>
<polygon fill="black" stroke="black" points="207.14,-172.5 217.14,-169 207.14,-165.5 207.14,-172.5"/>
</g>
</g>
</svg>
