<?xml version="1.0" encoding="UTF-8" standalone="no"?>
<!DOCTYPE svg PUBLIC "-//W3C//DTD SVG 1.1//EN"
 "http://www.w3.org/Graphics/SVG/1.1/DTD/svg11.dtd">
<!-- Generated by graphviz version 2.47.0 (20210316.0004)
 -->
<!-- Title: dependencies Pages: 1 -->
<svg width="504pt" height="284pt"
 viewBox="0.00 0.00 504.00 284.00" xmlns="http://www.w3.org/2000/svg" xmlns:xlink="http://www.w3.org/1999/xlink">
<g id="graph0" class="graph" transform="scale(1 1) rotate(0) translate(4 280)">
<title>dependencies</title>
<polygon fill="white" stroke="transparent" points="-4,4 -4,-280 500,-280 500,4 -4,4"/>
<text text-anchor="start" x="227.01" y="-42.4" font-family="sans-serif" font-weight="bold" font-size="14.00">Legend</text>
<polygon fill="#ffffb3" stroke="transparent" points="14,-10 14,-30 34,-30 34,-10 14,-10"/>
<text text-anchor="start" x="37.63" y="-15.4" font-family="sans-serif" font-size="14.00"> &#160;Declarations</text>
<polygon fill="#8dd3c7" stroke="transparent" points="127,-10 127,-30 147,-30 147,-10 127,-10"/>
<text text-anchor="start" x="150.73" y="-15.4" font-family="sans-serif" font-size="14.00"> &#160;Module</text>
<polygon fill="#80b1d3" stroke="transparent" points="213,-10 213,-30 233,-30 233,-10 213,-10"/>
<text text-anchor="start" x="236.78" y="-15.4" font-family="sans-serif" font-size="14.00"> &#160;Bootstrap</text>
<polygon fill="#fdb462" stroke="transparent" points="310,-10 310,-30 330,-30 330,-10 310,-10"/>
<text text-anchor="start" x="333.67" y="-15.4" font-family="sans-serif" font-size="14.00"> &#160;Providers</text>
<polygon fill="#fb8072" stroke="transparent" points="406,-10 406,-30 426,-30 426,-10 406,-10"/>
<text text-anchor="start" x="429.73" y="-15.4" font-family="sans-serif" font-size="14.00"> &#160;Exports</text>
<g id="clust1" class="cluster">
<title>cluster_ArticleModule</title>
<polygon fill="none" stroke="black" stroke-dasharray="1,5" points="45,-70 45,-268 451,-268 451,-70 45,-70"/>
</g>
<g id="clust4" class="cluster">
<title>cluster_ArticleModule_exports</title>
<polygon fill="none" stroke="black" points="169,-208 169,-260 285,-260 285,-208 169,-208"/>
</g>
<g id="clust6" class="cluster">
<title>cluster_ArticleModule_providers</title>
<polygon fill="none" stroke="black" points="293,-78 293,-130 443,-130 443,-78 293,-78"/>
</g>
<g id="clust3" class="cluster">
<title>cluster_ArticleModule_imports</title>
<polygon fill="none" stroke="black" points="53,-78 53,-130 285,-130 285,-78 53,-78"/>
</g>
<!-- AuthorModule -->
<g id="node1" class="node">
<title>AuthorModule</title>
<polygon fill="#8dd3c7" stroke="black" points="276.71,-122 273.71,-126 252.71,-126 249.71,-122 177.29,-122 177.29,-86 276.71,-86 276.71,-122"/>
<text text-anchor="middle" x="227" y="-99.8" font-family="Times,serif" font-size="14.00">AuthorModule</text>
</g>
<!-- ArticleModule -->
<g id="node3" class="node">
<title>ArticleModule</title>
<polygon fill="#8dd3c7" stroke="black" points="276.42,-187 273.42,-191 252.42,-191 249.42,-187 177.58,-187 177.58,-151 276.42,-151 276.42,-187"/>
<text text-anchor="middle" x="227" y="-164.8" font-family="Times,serif" font-size="14.00">ArticleModule</text>
</g>
<!-- AuthorModule&#45;&gt;ArticleModule -->
<g id="edge1" class="edge">
<title>AuthorModule&#45;&gt;ArticleModule</title>
<path fill="none" stroke="black" d="M227,-122.11C227,-122.11 227,-140.99 227,-140.99"/>
<polygon fill="black" stroke="black" points="223.5,-140.99 227,-150.99 230.5,-140.99 223.5,-140.99"/>
</g>
<!-- SharedModule -->
<g id="node2" class="node">
<title>SharedModule</title>
<polygon fill="#8dd3c7" stroke="black" points="159.42,-122 156.42,-126 135.42,-126 132.42,-122 60.58,-122 60.58,-86 159.42,-86 159.42,-122"/>
<text text-anchor="middle" x="110" y="-99.8" font-family="Times,serif" font-size="14.00">SharedModule</text>
</g>
<!-- SharedModule&#45;&gt;ArticleModule -->
<g id="edge2" class="edge">
<title>SharedModule&#45;&gt;ArticleModule</title>
<path fill="none" stroke="black" d="M110,-122.11C110,-141.34 110,-169 110,-169 110,-169 167.72,-169 167.72,-169"/>
<polygon fill="black" stroke="black" points="167.72,-172.5 177.72,-169 167.72,-165.5 167.72,-172.5"/>
</g>
<!-- ArticleService  -->
<g id="node4" class="node">
<title>ArticleService </title>
<polygon fill="#fb8072" stroke="black" points="277.35,-252 176.65,-252 176.65,-216 277.35,-216 277.35,-252"/>
<text text-anchor="middle" x="227" y="-229.8" font-family="Times,serif" font-size="14.00">ArticleService </text>
</g>
<!-- ArticleModule&#45;&gt;ArticleService  -->
<g id="edge3" class="edge">
<title>ArticleModule&#45;&gt;ArticleService </title>
<path fill="none" stroke="black" stroke-dasharray="5,2" d="M227,-187.11C227,-187.11 227,-205.99 227,-205.99"/>
<polygon fill="black" stroke="black" points="223.5,-205.99 227,-215.99 230.5,-205.99 223.5,-205.99"/>
</g>
<!-- ArticleService -->
<g id="node5" class="node">
<title>ArticleService</title>
<ellipse fill="#fdb462" stroke="black" cx="368" cy="-104" rx="66.61" ry="18"/>
<text text-anchor="middle" x="368" y="-99.8" font-family="Times,serif" font-size="14.00">ArticleService</text>
</g>
<!-- ArticleService&#45;&gt;ArticleModule -->
<g id="edge4" class="edge">
<title>ArticleService&#45;&gt;ArticleModule</title>
<path fill="none" stroke="black" d="M368,-122.11C368,-141.34 368,-169 368,-169 368,-169 286.31,-169 286.31,-169"/>
<polygon fill="black" stroke="black" points="286.31,-165.5 276.31,-169 286.31,-172.5 286.31,-165.5"/>
</g>
</g>
</svg>
