<?xml version="1.0" encoding="UTF-8" standalone="no"?>
<!DOCTYPE svg PUBLIC "-//W3C//DTD SVG 1.1//EN"
 "http://www.w3.org/Graphics/SVG/1.1/DTD/svg11.dtd">
<!-- Generated by graphviz version 2.47.0 (20210316.0004)
 -->
<!-- Title: dependencies Pages: 1 -->
<svg width="762pt" height="211pt"
 viewBox="0.00 0.00 762.00 211.00" xmlns="http://www.w3.org/2000/svg" xmlns:xlink="http://www.w3.org/1999/xlink">
<g id="graph0" class="graph" transform="scale(1 1) rotate(0) translate(4 207)">
<title>dependencies</title>
<polygon fill="white" stroke="transparent" points="-4,4 -4,-207 758,-207 758,4 -4,4"/>
<text text-anchor="start" x="356.01" y="-42.4" font-family="sans-serif" font-weight="bold" font-size="14.00">Legend</text>
<polygon fill="#ffffb3" stroke="transparent" points="143,-10 143,-30 163,-30 163,-10 143,-10"/>
<text text-anchor="start" x="166.63" y="-15.4" font-family="sans-serif" font-size="14.00"> &#160;Declarations</text>
<polygon fill="#8dd3c7" stroke="transparent" points="256,-10 256,-30 276,-30 276,-10 256,-10"/>
<text text-anchor="start" x="279.73" y="-15.4" font-family="sans-serif" font-size="14.00"> &#160;Module</text>
<polygon fill="#80b1d3" stroke="transparent" points="342,-10 342,-30 362,-30 362,-10 342,-10"/>
<text text-anchor="start" x="365.78" y="-15.4" font-family="sans-serif" font-size="14.00"> &#160;Bootstrap</text>
<polygon fill="#fdb462" stroke="transparent" points="439,-10 439,-30 459,-30 459,-10 439,-10"/>
<text text-anchor="start" x="462.67" y="-15.4" font-family="sans-serif" font-size="14.00"> &#160;Providers</text>
<polygon fill="#fb8072" stroke="transparent" points="535,-10 535,-30 555,-30 555,-10 535,-10"/>
<text text-anchor="start" x="558.73" y="-15.4" font-family="sans-serif" font-size="14.00"> &#160;Exports</text>
<g id="clust1" class="cluster">
<title>cluster_AppModule</title>
<polygon fill="none" stroke="black" stroke-dasharray="1,5" points="8,-70 8,-195 746,-195 746,-70 8,-70"/>
</g>
<g id="clust6" class="cluster">
<title>cluster_AppModule_providers</title>
<polygon fill="none" stroke="black" points="608,-78 608,-130 738,-130 738,-78 608,-78"/>
</g>
<g id="clust3" class="cluster">
<title>cluster_AppModule_imports</title>
<polygon fill="none" stroke="black" points="16,-78 16,-130 600,-130 600,-78 16,-78"/>
</g>
<!-- ArticleModule -->
<g id="node1" class="node">
<title>ArticleModule</title>
<polygon fill="#8dd3c7" stroke="black" points="592.42,-122 589.42,-126 568.42,-126 565.42,-122 493.58,-122 493.58,-86 592.42,-86 592.42,-122"/>
<text text-anchor="middle" x="543" y="-99.8" font-family="Times,serif" font-size="14.00">ArticleModule</text>
</g>
<!-- AppModule -->
<g id="node6" class="node">
<title>AppModule</title>
<polygon fill="#8dd3c7" stroke="black" points="404.66,-187 401.66,-191 380.66,-191 377.66,-187 321.34,-187 321.34,-151 404.66,-151 404.66,-187"/>
<text text-anchor="middle" x="363" y="-164.8" font-family="Times,serif" font-size="14.00">AppModule</text>
</g>
<!-- ArticleModule&#45;&gt;AppModule -->
<g id="edge1" class="edge">
<title>ArticleModule&#45;&gt;AppModule</title>
<path fill="none" stroke="black" d="M543,-122.02C543,-139.37 543,-163 543,-163 543,-163 414.75,-163 414.75,-163"/>
<polygon fill="black" stroke="black" points="414.75,-159.5 404.75,-163 414.75,-166.5 414.75,-159.5"/>
</g>
<!-- AuthorModule -->
<g id="node2" class="node">
<title>AuthorModule</title>
<polygon fill="#8dd3c7" stroke="black" points="475.71,-122 472.71,-126 451.71,-126 448.71,-122 376.29,-122 376.29,-86 475.71,-86 475.71,-122"/>
<text text-anchor="middle" x="426" y="-99.8" font-family="Times,serif" font-size="14.00">AuthorModule</text>
</g>
<!-- AuthorModule&#45;&gt;AppModule -->
<g id="edge2" class="edge">
<title>AuthorModule&#45;&gt;AppModule</title>
<path fill="none" stroke="black" d="M390.61,-122.11C390.61,-122.11 390.61,-140.99 390.61,-140.99"/>
<polygon fill="black" stroke="black" points="387.11,-140.99 390.61,-150.99 394.11,-140.99 387.11,-140.99"/>
</g>
<!-- CommentModule -->
<g id="node3" class="node">
<title>CommentModule</title>
<polygon fill="#8dd3c7" stroke="black" points="358.27,-122 355.27,-126 334.27,-126 331.27,-122 243.73,-122 243.73,-86 358.27,-86 358.27,-122"/>
<text text-anchor="middle" x="301" y="-99.8" font-family="Times,serif" font-size="14.00">CommentModule</text>
</g>
<!-- CommentModule&#45;&gt;AppModule -->
<g id="edge3" class="edge">
<title>CommentModule&#45;&gt;AppModule</title>
<path fill="none" stroke="black" d="M339.78,-122.11C339.78,-122.11 339.78,-140.99 339.78,-140.99"/>
<polygon fill="black" stroke="black" points="336.28,-140.99 339.78,-150.99 343.28,-140.99 336.28,-140.99"/>
</g>
<!-- LikeModule -->
<g id="node4" class="node">
<title>LikeModule</title>
<polygon fill="#8dd3c7" stroke="black" points="225.71,-122 222.71,-126 201.71,-126 198.71,-122 140.29,-122 140.29,-86 225.71,-86 225.71,-122"/>
<text text-anchor="middle" x="183" y="-99.8" font-family="Times,serif" font-size="14.00">LikeModule</text>
</g>
<!-- LikeModule&#45;&gt;AppModule -->
<g id="edge4" class="edge">
<title>LikeModule&#45;&gt;AppModule</title>
<path fill="none" stroke="black" d="M183,-122.02C183,-139.37 183,-163 183,-163 183,-163 311.25,-163 311.25,-163"/>
<polygon fill="black" stroke="black" points="311.25,-166.5 321.25,-163 311.25,-159.5 311.25,-166.5"/>
</g>
<!-- SharedModule -->
<g id="node5" class="node">
<title>SharedModule</title>
<polygon fill="#8dd3c7" stroke="black" points="122.42,-122 119.42,-126 98.42,-126 95.42,-122 23.58,-122 23.58,-86 122.42,-86 122.42,-122"/>
<text text-anchor="middle" x="73" y="-99.8" font-family="Times,serif" font-size="14.00">SharedModule</text>
</g>
<!-- SharedModule&#45;&gt;AppModule -->
<g id="edge5" class="edge">
<title>SharedModule&#45;&gt;AppModule</title>
<path fill="none" stroke="black" d="M73,-122.28C73,-143.32 73,-175 73,-175 73,-175 311.14,-175 311.14,-175"/>
<polygon fill="black" stroke="black" points="311.14,-178.5 321.14,-175 311.14,-171.5 311.14,-178.5"/>
</g>
<!-- AppService -->
<g id="node7" class="node">
<title>AppService</title>
<ellipse fill="#fdb462" stroke="black" cx="673" cy="-104" rx="56.74" ry="18"/>
<text text-anchor="middle" x="673" y="-99.8" font-family="Times,serif" font-size="14.00">AppService</text>
</g>
<!-- AppService&#45;&gt;AppModule -->
<g id="edge6" class="edge">
<title>AppService&#45;&gt;AppModule</title>
<path fill="none" stroke="black" d="M673,-122.28C673,-143.32 673,-175 673,-175 673,-175 414.81,-175 414.81,-175"/>
<polygon fill="black" stroke="black" points="414.81,-171.5 404.81,-175 414.81,-178.5 414.81,-171.5"/>
</g>
</g>
</svg>
